<svg width="51" height="40" viewBox="0 0 51 40" fill="none" xmlns="http://www.w3.org/2000/svg">
<path fill-rule="evenodd" clip-rule="evenodd" d="M10.9673 19.5C11.5314 19.2273 12.6146 19.0909 13.7204 19.0909C18.9332 19.0909 23.0403 23.0909 23.0403 29.0227C23.0403 34.9546 18.0982 39.9318 12.2084 39.9318C5.75442 39.9318 0 34.8182 0 25.8409C0 15.4773 5.61903 6.22726 14.104 0.15909L14.1265 0.181819C14.3296 0.0681825 14.5553 0 14.8035 0C15.142 0 15.458 0.136364 15.7062 0.340909L15.7288 0.318184L21.4381 3.95456L21.4155 3.97728C21.7991 4.25001 22.0925 4.70456 22.0925 5.22728C22.0925 5.81819 21.754 6.31819 21.2801 6.56819L21.1898 6.63635L21.1673 6.6591C16.8119 9.04547 12.1858 14.5682 10.9673 19.5ZM38.8818 19.5C39.446 19.2273 40.5292 19.0909 41.6349 19.0909C46.8477 19.0909 50.9548 23.0909 50.9548 29.0455C50.9548 34.9773 46.0128 39.9546 40.123 39.9546C33.669 39.9546 27.9146 34.8409 27.9146 25.8636C27.9146 15.5 33.5336 6.22726 42.0411 0.15909L42.0637 0.181819C42.2668 0.0681825 42.4924 0 42.7407 0C43.0792 0 43.3951 0.136364 43.6433 0.340909L43.6659 0.318184L49.3752 3.95456L49.33 3.97728C49.7137 4.25001 50.007 4.70456 50.007 5.22728C50.007 5.81819 49.6685 6.31819 49.1946 6.56819L49.1044 6.63635L49.0818 6.6591C44.7265 9.04547 40.1004 14.5682 38.8818 19.5Z" fill="#A58AF5"/>
</svg>
